<svg width="48" height="46" viewBox="0 0 48 46" fill="none" xmlns="http://www.w3.org/2000/svg">
<g clip-path="url(#clip0)">
<path d="M39.0072 31.3289C36.8064 35.3787 33.1637 38.3206 28.7622 39.5814C27.1685 40.0399 25.5748 40.2691 23.9811 40.2691C20.7558 40.2691 17.6064 39.3522 14.9503 37.6711C14.6088 37.4419 14.1535 37.4037 13.774 37.5183L10.4349 38.5116C9.2586 38.8555 8.99299 40.3837 9.94161 41.1096C13.9258 44.2425 18.8586 46 24.0191 46C26.106 46 28.2689 45.6944 30.3938 45.0831C36.2373 43.3638 41.0942 39.4668 44.0539 34.0797C44.661 32.9718 45.1542 31.8638 45.5716 30.6794C45.989 29.5332 44.9266 28.387 43.7503 28.7309L40.4112 29.7243C39.9938 29.8389 39.6902 30.1063 39.5005 30.4884C39.3108 30.794 39.159 31.0615 39.0072 31.3289Z" fill="#F06C1F"/>
<path d="M19.2002 6.4186C20.7939 5.96013 22.3875 5.7309 23.9812 5.7309C27.2065 5.7309 30.3559 6.64784 33.012 8.3289C33.3535 8.55814 33.8089 8.59634 34.1883 8.48173L37.5654 7.48837C38.7037 7.14452 39.0452 5.61628 38.0966 4.89036C37.148 4.12625 36.0856 3.43854 34.9852 2.82724C29.6729 -0.114618 23.4879 -0.802326 17.6444 0.916943C10.3211 3.05648 4.8571 8.59634 2.46658 15.3206C2.04919 16.4668 3.11164 17.5747 4.28792 17.2309L7.62706 16.2375C8.0065 16.1229 8.348 15.8555 8.53773 15.4734C10.6247 11.2326 14.3812 7.83222 19.2002 6.4186Z" fill="#F06C1F"/>
<path d="M41.4355 8.9402L1.8213 20.5548C0.493237 20.9369 -0.265657 22.3505 0.11379 23.6877L3.49086 35.3787C3.87031 36.7159 5.27426 37.4801 6.60233 37.098L46.2166 25.5216C47.5446 25.1395 48.3035 23.7259 47.9241 22.3887L44.547 10.6977C44.1296 9.32226 42.7636 8.55814 41.4355 8.9402ZM22.4632 27.6611L19.3897 26.0565C18.7826 25.7508 18.5549 24.9867 18.8585 24.4136C19.162 23.8023 19.9209 23.5731 20.4901 23.8787L22.5391 24.9485L26.9407 16.4286C27.2442 15.8173 28.0031 15.588 28.5723 15.8937C29.1794 16.1993 29.4071 16.9635 29.1035 17.5365L24.1707 27.1262C23.8292 27.7757 23.0703 28.005 22.4632 27.6611Z" fill="#F18701"/>
</g>
<defs>
<clipPath id="clip0">
<rect width="48" height="46" fill="white"/>
</clipPath>
</defs>
</svg>
